<svg width="100" height="100" viewBox="0 0 100 100" fill="none" xmlns="http://www.w3.org/2000/svg">
<g clip-path="url(#clip0_1204_8)">
<path d="M75 6.25C76.6576 6.25 78.2473 6.90848 79.4194 8.08058C80.5915 9.25268 81.25 10.8424 81.25 12.5V87.5C81.25 89.1576 80.5915 90.7473 79.4194 91.9194C78.2473 93.0915 76.6576 93.75 75 93.75H25C23.3424 93.75 21.7527 93.0915 20.5806 91.9194C19.4085 90.7473 18.75 89.1576 18.75 87.5V12.5C18.75 10.8424 19.4085 9.25268 20.5806 8.08058C21.7527 6.90848 23.3424 6.25 25 6.25H75ZM25 0C21.6848 0 18.5054 1.31696 16.1612 3.66117C13.817 6.00537 12.5 9.18479 12.5 12.5V87.5C12.5 90.8152 13.817 93.9946 16.1612 96.3388C18.5054 98.683 21.6848 100 25 100H75C78.3152 100 81.4946 98.683 83.8388 96.3388C86.183 93.9946 87.5 90.8152 87.5 87.5V12.5C87.5 9.18479 86.183 6.00537 83.8388 3.66117C81.4946 1.31696 78.3152 0 75 0L25 0Z" fill="#109DFA"/>
<path d="M25 15.625C25 14.7962 25.3292 14.0013 25.9153 13.4153C26.5013 12.8292 27.2962 12.5 28.125 12.5H71.875C72.7038 12.5 73.4987 12.8292 74.0847 13.4153C74.6708 14.0013 75 14.7962 75 15.625V28.125C75 28.9538 74.6708 29.7487 74.0847 30.3347C73.4987 30.9208 72.7038 31.25 71.875 31.25H28.125C27.2962 31.25 26.5013 30.9208 25.9153 30.3347C25.3292 29.7487 25 28.9538 25 28.125V15.625ZM25 40.625C25 39.7962 25.3292 39.0013 25.9153 38.4153C26.5013 37.8292 27.2962 37.5 28.125 37.5H34.375C35.2038 37.5 35.9987 37.8292 36.5847 38.4153C37.1708 39.0013 37.5 39.7962 37.5 40.625V46.875C37.5 47.7038 37.1708 48.4987 36.5847 49.0847C35.9987 49.6708 35.2038 50 34.375 50H28.125C27.2962 50 26.5013 49.6708 25.9153 49.0847C25.3292 48.4987 25 47.7038 25 46.875V40.625ZM25 59.375C25 58.5462 25.3292 57.7513 25.9153 57.1653C26.5013 56.5792 27.2962 56.25 28.125 56.25H34.375C35.2038 56.25 35.9987 56.5792 36.5847 57.1653C37.1708 57.7513 37.5 58.5462 37.5 59.375V65.625C37.5 66.4538 37.1708 67.2487 36.5847 67.8347C35.9987 68.4208 35.2038 68.75 34.375 68.75H28.125C27.2962 68.75 26.5013 68.4208 25.9153 67.8347C25.3292 67.2487 25 66.4538 25 65.625V59.375ZM25 78.125C25 77.2962 25.3292 76.5013 25.9153 75.9153C26.5013 75.3292 27.2962 75 28.125 75H34.375C35.2038 75 35.9987 75.3292 36.5847 75.9153C37.1708 76.5013 37.5 77.2962 37.5 78.125V84.375C37.5 85.2038 37.1708 85.9987 36.5847 86.5847C35.9987 87.1708 35.2038 87.5 34.375 87.5H28.125C27.2962 87.5 26.5013 87.1708 25.9153 86.5847C25.3292 85.9987 25 85.2038 25 84.375V78.125ZM43.75 40.625C43.75 39.7962 44.0792 39.0013 44.6653 38.4153C45.2513 37.8292 46.0462 37.5 46.875 37.5H53.125C53.9538 37.5 54.7487 37.8292 55.3347 38.4153C55.9208 39.0013 56.25 39.7962 56.25 40.625V46.875C56.25 47.7038 55.9208 48.4987 55.3347 49.0847C54.7487 49.6708 53.9538 50 53.125 50H46.875C46.0462 50 45.2513 49.6708 44.6653 49.0847C44.0792 48.4987 43.75 47.7038 43.75 46.875V40.625ZM43.75 59.375C43.75 58.5462 44.0792 57.7513 44.6653 57.1653C45.2513 56.5792 46.0462 56.25 46.875 56.25H53.125C53.9538 56.25 54.7487 56.5792 55.3347 57.1653C55.9208 57.7513 56.25 58.5462 56.25 59.375V65.625C56.25 66.4538 55.9208 67.2487 55.3347 67.8347C54.7487 68.4208 53.9538 68.75 53.125 68.75H46.875C46.0462 68.75 45.2513 68.4208 44.6653 67.8347C44.0792 67.2487 43.75 66.4538 43.75 65.625V59.375ZM43.75 78.125C43.75 77.2962 44.0792 76.5013 44.6653 75.9153C45.2513 75.3292 46.0462 75 46.875 75H53.125C53.9538 75 54.7487 75.3292 55.3347 75.9153C55.9208 76.5013 56.25 77.2962 56.25 78.125V84.375C56.25 85.2038 55.9208 85.9987 55.3347 86.5847C54.7487 87.1708 53.9538 87.5 53.125 87.5H46.875C46.0462 87.5 45.2513 87.1708 44.6653 86.5847C44.0792 85.9987 43.75 85.2038 43.75 84.375V78.125ZM62.5 40.625C62.5 39.7962 62.8292 39.0013 63.4153 38.4153C64.0013 37.8292 64.7962 37.5 65.625 37.5H71.875C72.7038 37.5 73.4987 37.8292 74.0847 38.4153C74.6708 39.0013 75 39.7962 75 40.625V46.875C75 47.7038 74.6708 48.4987 74.0847 49.0847C73.4987 49.6708 72.7038 50 71.875 50H65.625C64.7962 50 64.0013 49.6708 63.4153 49.0847C62.8292 48.4987 62.5 47.7038 62.5 46.875V40.625ZM62.5 59.375C62.5 58.5462 62.8292 57.7513 63.4153 57.1653C64.0013 56.5792 64.7962 56.25 65.625 56.25H71.875C72.7038 56.25 73.4987 56.5792 74.0847 57.1653C74.6708 57.7513 75 58.5462 75 59.375V84.375C75 85.2038 74.6708 85.9987 74.0847 86.5847C73.4987 87.1708 72.7038 87.5 71.875 87.5H65.625C64.7962 87.5 64.0013 87.1708 63.4153 86.5847C62.8292 85.9987 62.5 85.2038 62.5 84.375V59.375Z" fill="#109DFA"/>
</g>
<defs>
<clipPath id="clip0_1204_8">
<rect width="100" height="100" fill="white"/>
</clipPath>
</defs>
</svg>
